#!OML:ASF H:\Male1\Project 1\Capture day 1\Session 1\Male1.ASF
:FULLY-SPECIFIED
:DEGREES
535
root 16.3213 16.5318 0.785438 -6.83686 44.3021 -396.85
lowerback 20.7791 6.77279 -2.53565
upperback 6.98927 8.32491 -2.00089
thorax -3.94973 4.13595 -2.6826
lowerneck -1.65376 9.68508 16.7924
upperneck -3.95554 12.6035 -11.8694
head 0.92012 6.24169 -5.89392
rclavicle -9.38264e-014 -2.22639e-014
rhumerus -36.2377 -13.9561 -74.3356
rradius 33.4707
rwrist -21.9313
rhand -20.5015 7.83234
rfingers 7.12502
rthumb 5.85565 -22.0667
lclavicle -9.38264e-014 -2.22639e-014
lhumerus -43.1254 1.8773 80.0364
lradius 67.6302
lwrist 19.189
lhand -35.3481 14.9302
lfingers 7.12502
lthumb -8.4807 44.7399
rfemur -12.128 -0.583559 3.98153
rtibia 97.3726
rfoot 4.01068 -6.66603
rtoes 3.223
lfemur -26.2333 -13.6623 14.1851
ltibia 14.5383
lfoot -28.2479 43.1224
ltoes 38.6833
536
root 16.527 16.5994 0.761076 -6.55236 44.373 -396.197
lowerback 21.2246 6.4654 -2.18279
upperback 7.05499 8.0049 -1.60853
thorax -4.12517 3.97736 -2.43213
lowerneck -1.49068 9.84384 17.1176
upperneck -3.93523 12.8247 -12.997
head 1.04043 6.3577 -6.27421
rclavicle 1.09729e-013 -1.27222e-014
rhumerus -36.0256 -14.4983 -73.7268
rradius 33.7686
rwrist -22.1542
rhand -21.5814 7.86025
rfingers 7.12502
rthumb 4.81299 -22.0651
lclavicle 1.09729e-013 -1.27222e-014
lhumerus -43.0669 2.04841 80.3771
lradius 66.8604
lwrist 18.1287
lhand -34.9106 13.987
lfingers 7.12502
lthumb -8.05845 43.8133
rfemur -15.9629 -1.09198 1.08303
rtibia 106.181
rfoot 3.02108 -5.82444
rtoes 6.79425
lfemur -22.5206 -12.964 12.2352
ltibia 9.18303
lfoot -25.7337 42.7935
ltoes 38.9202
537
root 16.7278 16.6554 0.738075 -6.25369 44.4245 -395.503
lowerback 21.666 6.12301 -1.82129
upperback 7.13349 7.64933 -1.19479
thorax -4.28541 3.80181 -2.14952
lowerneck -1.25868 10.0126 17.4018
upperneck -3.99771 13.0721 -14.1665
head 1.13477 6.49097 -6.66691
rclavicle 5.08889e-014 -9.54166e-014
rhumerus -35.8441 -14.9383 -73.1037
rradius 34.0784
rwrist -22.5196
rhand -22.5838 7.78423
rfingers 7.12502
rthumb 3.84505 -22.1608
lclavicle 5.08889e-014 -9.54166e-014
lhumerus -42.9475 2.20421 80.5748
lradius 66.0221
lwrist 17.0624
lhand -34.3168 13.2104
lfingers 7.12502
lthumb -7.48534 43.058
rfemur -20.1113 -2.02369 -2.43655
rtibia 114.591
rfoot 1.53463 -4.09648
rtoes 8.71897
lfemur -16.8543 -12.0074 10.6448
ltibia 3.45885e-014
lfoot -20.8296 43.221
ltoes 39.0578
538
root 16.9244 16.7003 0.717774 -5.97433 44.5136 -394.748
lowerback 22.1503 5.74485 -1.44213
upperback 7.23866 7.25735 -0.784337
thorax -4.43386 3.60954 -1.86897
lowerneck -0.977306 10.1724 17.7102
upperneck -4.13157 13.3158 -15.4103
head 1.2126 6.62708 -7.0932
rclavicle -3.49861e-014 6.83819e-014
rhumerus -35.7262 -15.3307 -72.4827
rradius 34.4363
rwrist -23.012
rhand -23.4529 7.54524
rfingers 7.12502
rthumb 3.00574 -22.4133
lclavicle -3.49861e-014 6.83819e-014
lhumerus -42.7555 2.27084 80.6231
lradius 65.1479
lwrist 16.0715
lhand -33.5595 12.6109
lfingers 7.12502
lthumb -6.75432 42.4831
rfemur -24.5039 -3.80587 -6.85641
rtibia 122.415
rfoot -0.419921 -1.25336
rtoes 8.73526
lfemur -15.9688 -11.1845 8.88684
ltibia -2.3059e-014
lfoot -20.833 41.5905
ltoes 38.9743
539
root 17.1171 16.7338 0.702056 -5.6943 44.6723 -393.882
lowerback 22.6627 5.34327 -1.07163
upperback 7.38119 6.83874 -0.409666
thorax -4.54994 3.40598 -1.60978
lowerneck -0.647311 10.3236 18.0247
upperneck -4.3402 13.5548 -16.6405
head 1.26488 6.76645 -7.52443
rclavicle -1.11319e-014 5.08889e-014
rhumerus -35.6906 -15.7149 -71.8962
rradius 34.833
rwrist -23.5577
rhand -24.1444 7.27108
rfingers 7.12502
rthumb 2.33787 -22.6959
lclavicle -1.11319e-014 5.08889e-014
lhumerus -42.4653 2.14401 80.5219
lradius 64.249
lwrist 15.2814
lhand -32.6903 12.1752
lfingers 7.12502
lthumb -5.91524 42.0726
rfemur -29.0445 -7.12399 -12.5708
rtibia 129.518
rfoot -3.20739 2.98993
rtoes 6.68213
lfemur -15.0521 -10.4174 7.09791
ltibia -3.18055e-015
lfoot -20.3262 40.0637
ltoes 38.4397
540
root 17.3061 16.7563 0.693338 -5.42515 44.9737 -392.884
lowerback 23.1954 4.90548 -0.718825
upperback 7.57056 6.37449 -0.0933782
thorax -4.6178 3.18271 -1.3843
lowerneck -0.297286 10.4692 18.3388
upperneck -4.56308 13.7913 -17.7718
head 1.30607 6.90859 -7.92958
rclavicle -1.90833e-014 -6.36111e-015
rhumerus -35.747 -16.1187 -71.3748
rradius 35.2211
rwrist -24.0543
rhand -24.7372 6.92069
rfingers 7.12502
rthumb 1.76542 -23.0518
lclavicle -1.90833e-014 -6.36111e-015
lhumerus -42.0631 1.7707 80.267
lradius 63.3438
lwrist 14.7773
lhand -31.7667 11.9161
lfingers 7.12502
lthumb -5.02342 41.8366
rfemur -33.1467 -12.8797 -19.9361
rtibia 135.629
rfoot -6.95679 8.44402
rtoes 3.24791
lfemur -14.1038 -9.77927 5.26481
ltibia -2.70347e-014
lfoot -19.2062 38.6409
ltoes 37.2528
541
root 17.4919 16.7657 0.694009 -5.20457 45.4899 -391.778
lowerback 23.7305 4.40922 -0.364204
upperback 7.80936 5.84048 0.157788
thorax -4.62386 2.92894 -1.20247
lowerneck 0.0334527 10.6119 18.5982
upperneck -4.7221 14.028 -18.6909
head 1.35063 7.05097 -8.25927
rclavicle -2.22639e-014 -2.8625e-014
rhumerus -35.9207 -16.5558 -70.9179
rradius 35.5532
rwrist -24.4275
rhand -25.2182 6.5744
rfingers 7.12502
rthumb 1.30085 -23.4014
lclavicle -2.22639e-014 -2.8625e-014
lhumerus -41.5399 1.15743 79.8546
lradius 62.4585
lwrist 14.5525
lhand -30.8214 11.8862
lfingers 7.12502
lthumb -4.11067 41.8263
rfemur -35.9754 -21.6091 -28.8989
rtibia 140.71
rfoot -12.3431 14.5889
rtoes -1.28226
lfemur -13.1247 -9.34232 3.41355
ltibia -4.92986e-014
lfoot -17.529 37.2731
ltoes 35.3398
542
root 17.6751 16.7628 0.706425 -5.05715 46.2683 -390.607
lowerback 24.2343 3.84207 0.00431519
upperback 8.08987 5.22419 0.346862
thorax -4.56081 2.63914 -1.06287
lowerneck 0.30869 10.7483 18.7625
upperneck -4.7527 14.259 -19.3168
head 1.40952 7.18589 -8.47645
rclavicle -3.02153e-014 1.90833e-014
rhumerus -36.228 -17.0198 -70.5245
rradius 35.795
rwrist -24.6695
rhand -25.5993 6.24165
rfingers 7.12502
rthumb 0.932764 -23.7361
lclavicle -3.02153e-014 1.90833e-014
lhumerus -40.8847 0.352466 79.2844
lradius 61.611
lwrist 14.5097
lhand -29.8522 12.1605
lfingers 7.12502
lthumb -3.17475 42.1166
rfemur -36.7741 -31.7525 -37.7847
rtibia 144.6
rfoot -18.898 19.5691
rtoes -6.6348
lfemur -12.1227 -9.15108 1.57658
ltibia -2.22639e-014
lfoot -15.4906 35.9015
ltoes 32.7994
543
root 17.8563 16.7492 0.7324 -4.94576 47.3064 -389.377
lowerback 24.6443 3.21842 0.359774
upperback 8.39891 4.53733 0.478869
thorax -4.41723 2.31897 -0.946248
lowerneck 0.524077 10.8657 18.8316
upperneck -4.64792 14.4662 -19.6454
head 1.4793 7.30207 -8.57983
rclavicle -6.36111e-014 5.40694e-014
rhumerus -36.6713 -17.4695 -70.1976
rradius 35.8969
rwrist -24.8664
rhand -25.9462 6.05368
rfingers 7.12502
rthumb 0.597692 -23.9252
lclavicle -6.36111e-014 5.40694e-014
lhumerus -40.0747 -0.54921 78.5674
lradius 60.7995
lwrist 14.4824
lhand -28.8333 12.7543
lfingers 7.12502
lthumb -2.19068 42.7228
rfemur -37.3141 -40.0685 -42.4077
rtibia 147.204
rfoot -24.2001 21.8797
rtoes -12.1694
lfemur -11.1199 -9.19432 -0.245912
ltibia -1.27222e-014
lfoot -13.3664 34.5262
ltoes 29.9033
544
root 18.0366 16.7269 0.772959 -4.77459 48.5483 -388.031
lowerback 24.9052 2.58075 0.634246
upperback 8.72138 3.81517 0.549622
thorax -4.18853 1.98438 -0.829099
lowerneck 0.705273 10.9429 18.8367
upperneck -4.45325 14.62 -19.7409
head 1.5438 7.38613 -8.60024
rclavicle 1.27222e-014 8.5875e-014
rhumerus -37.2621 -17.8664 -69.9389
rradius 35.9083
rwrist -25.0495
rhand -26.2817 5.74489
rfingers 7.12502
rthumb 0.27367 -24.2347
lclavicle 1.27222e-014 8.5875e-014
lhumerus -39.097 -1.46047 77.7285
lradius 60.0103
lwrist 14.3265
lhand -27.781 13.6013
lfingers 7.12502
lthumb -1.17438 43.5779
rfemur -41.9525 -43.9939 -37.6471
rtibia 148.351
rfoot -25.3668 21.639
rtoes -16.4117
lfemur -10.1207 -9.41189 -2.11306
ltibia -2.38542e-015
lfoot -11.3506 33.2333
ltoes 26.8701
545
root 18.2178 16.6985 0.827755 -4.4227 49.8979 -386.471
lowerback 25.0035 1.98881 0.725771
upperback 9.03466 3.10661 0.562598
thorax -3.89826 1.65595 -0.667442
lowerneck 0.865269 10.9655 18.8274
upperneck -4.19887 14.7011 -19.7153
head 1.60232 7.4303 -8.58491
rclavicle 1.43125e-014 6.83819e-014
rhumerus -38.0009 -18.165 -69.7333
rradius 35.792
rwrist -25.192
rhand -26.5647 5.41348
rfingers 7.12502
rthumb 0.000378458 -24.5663
lclavicle 1.43125e-014 6.83819e-014
lhumerus -37.9795 -2.29068 76.813
lradius 59.2335
lwrist 13.981
lhand -26.7444 14.5513
lfingers 7.12502
lthumb -0.173265 44.5309
rfemur -52.3726 -41.1112 -22.9683
rtibia 147.889
rfoot -22.2782 18.6767
rtoes -20.2212
lfemur -9.10441 -9.70916 -4.11172
ltibia 3.97569e-015
lfoot -9.49227 32.1335
ltoes 23.73
546
root 18.4014 16.6648 0.895174 -3.76037 51.2696 -384.56
lowerback 24.9681 1.49453 0.544935
upperback 9.32234 2.45509 0.508701
thorax -3.57783 1.3511 -0.436799
lowerneck 0.992354 10.9286 18.8406
upperneck -3.89775 14.7009 -19.6526
head 1.66219 7.43098 -8.56686
rclavicle -1.43125e-014 -5.40694e-014
rhumerus -38.8716 -18.3702 -69.5648
rradius 35.5281
rwrist -25.242
rhand -26.7439 5.07696
rfingers 7.12502
rthumb -0.172724 -24.9027
lclavicle -1.43125e-014 -5.40694e-014
lhumerus -36.763 -3.00506 75.8687
lradius 58.4662
lwrist 13.507
lhand -25.8113 15.414
lfingers 7.12502
lthumb 0.727988 45.3925
rfemur -62.5953 -31.0069 -7.04849
rtibia 145.721
rfoot -17.4489 13.1878
rtoes -23.0497
lfemur -8.03716 -10.0058 -6.33971
ltibia 2.06736e-014
lfoot -7.78188 31.287
ltoes 20.489
547
root 18.5882 16.6235 0.973205 -2.70955 52.6155 -382.213
lowerback 24.8527 1.12414 0.0742601
upperback 9.56669 1.89113 0.380444
thorax -3.2672 1.08211 -0.146934
lowerneck 1.07954 10.836 18.8779
upperneck -3.55601 14.6234 -19.5738
head 1.72578 7.39044 -8.55234
rclavicle -6.20208e-014 4.05521e-014
rhumerus -39.8686 -18.5125 -69.4192
rradius 35.1241
rwrist -25.1474
rhand -26.7628 4.74526
rfingers 7.12502
rthumb -0.191023 -25.2344
lclavicle -6.20208e-014 4.05521e-014
lhumerus -35.5033 -3.66867 74.9476
lradius 57.725
lwrist 13.0873
lhand -25.1387 16.0788
lfingers 7.12502
lthumb 1.37761 46.0541
rfemur -68.6279 -18.7314 3.50865
rtibia 141.977
rfoot -13.8548 7.14638
rtoes -25.5859
lfemur -6.89317 -10.2602 -8.83046
ltibia -1.27222e-014
lfoot -6.1861 30.6733
ltoes 17.1605
548
root 18.778 16.5702 1.0593 -1.38972 53.9043 -379.614
lowerback 24.6872 0.856684 -0.554741
upperback 9.75868 1.42196 0.211977
thorax -2.98438 0.853178 0.161423
lowerneck 1.11808 10.7047 18.957
upperneck -3.17197 14.4914 -19.5115
head 1.80374 7.32015 -8.55144
rclavicle -6.91771e-014 5.96354e-014
rhumerus -40.9375 -18.5981 -69.3136
rradius 34.6045
rwrist -24.8771
rhand -26.6029 4.45506
rfingers 7.12502
rthumb -0.0365803 -25.5247
lclavicle -6.91771e-014 5.96354e-014
lhumerus -34.2622 -4.2803 74.0839
lradius 57.062
lwrist 12.8722
lhand -24.8207 16.5492
lfingers 7.12502
lthumb 1.68471 46.5223
rfemur -71.4553 -9.05181 9.16153
rtibia 136.781
rfoot -11.8944 2.41499
rtoes -27.4998
lfemur -5.68335 -10.445 -11.4108
ltibia 1.59028e-015
lfoot -4.70247 30.2013
ltoes 13.841
